<?xml version="1.0" standalone="no"?>
<!DOCTYPE svg PUBLIC "-//W3C//DTD SVG 20010904//EN"
 "http://www.w3.org/TR/2001/REC-SVG-20010904/DTD/svg10.dtd">
<svg version="1.0" xmlns="http://www.w3.org/2000/svg"
 width="700.000000pt" height="700.000000pt" viewBox="0 0 700.000000 700.000000"
 preserveAspectRatio="xMidYMid meet">
<metadata>
Created by potrace 1.11, written by Peter Selinger 2001-2013
</metadata>
<g transform="translate(0.000000,700.000000) scale(0.100000,-0.100000)"
fill="#000000" stroke="none">
<path d="M0 3523 l0 -1613 280 0 280 0 0 620 0 620 313 0 313 0 66 -127 c127
-247 201 -389 233 -448 44 -82 95 -183 96 -192 1 -5 9 -19 19 -33 9 -14 44
-79 78 -145 33 -66 80 -158 105 -205 l46 -85 300 -3 c273 -2 301 -1 301 14 0
9 -19 51 -41 93 -23 42 -70 128 -104 191 -34 63 -82 151 -105 195 -90 168
-116 215 -205 380 -51 94 -113 208 -138 255 -25 47 -64 120 -86 162 l-42 77
58 28 c148 70 305 203 388 328 54 83 100 194 122 295 24 116 24 353 -1 469
-79 378 -352 623 -782 701 -165 31 -222 33 -872 34 l-622 1 0 -1612z m1250
1153 c148 -14 281 -75 363 -165 86 -97 122 -207 121 -381 0 -102 -3 -124 -29
-190 -48 -128 -123 -211 -240 -269 -119 -59 -156 -63 -547 -66 l-358 -3 0 538
c0 350 4 540 10 542 19 6 605 1 680 -6z"/>
<path d="M3539 4345 c-2 -1 -20 -5 -39 -8 -254 -36 -505 -191 -667 -411 -101
-136 -187 -353 -221 -556 -16 -93 -19 -152 -17 -305 3 -189 5 -210 26 -315 66
-331 258 -598 542 -750 96 -51 208 -92 297 -106 14 -3 49 -9 77 -15 62 -12
272 -15 358 -5 236 28 471 133 625 278 41 38 140 156 140 166 0 3 -20 24 -44
47 -24 22 -87 82 -140 133 -53 50 -100 92 -104 91 -4 0 -23 -19 -42 -43 -86
-104 -251 -203 -391 -232 -137 -29 -283 -21 -397 22 -212 79 -354 268 -397
527 l-12 77 785 0 785 0 -6 228 c-4 125 -9 241 -11 258 -22 134 -58 271 -94
354 -9 19 -16 38 -16 41 -3 24 -120 194 -174 251 -58 61 -229 188 -255 188 -5
0 -23 6 -40 14 -66 28 -136 48 -237 65 -51 9 -323 14 -331 6z m276 -440 c156
-40 282 -176 325 -350 17 -70 17 -72 25 -151 l6 -70 -513 0 -513 1 3 30 c16
147 94 322 187 416 98 100 200 138 355 134 52 -2 109 -6 125 -10z"/>
<path d="M6368 4251 c-19 -31 -79 -126 -133 -211 -54 -85 -117 -184 -140 -220
-23 -36 -106 -166 -185 -290 -79 -124 -158 -247 -175 -275 -31 -48 -773 -1215
-828 -1302 l-27 -43 299 0 300 0 31 53 c17 28 79 127 138 219 59 93 168 264
242 380 74 117 166 263 205 323 75 116 266 415 375 589 65 103 126 198 186
291 138 215 334 527 334 534 0 4 -132 7 -293 7 l-293 1 -36 -56z"/>
</g>
</svg>
